<svg width="1280" height="720" xmlns="http://www.w3.org/2000/svg" xmlns:xlink="http://www.w3.org/1999/xlink" overflow="hidden"><g><rect x="0" y="0" width="1280" height="720" fill="#FFFFFF"/><path d="M293.5 21.1669C293.5 14.7235 298.723 9.50005 305.167 9.50005L1260.83 9.50005C1267.28 9.50005 1272.5 14.7235 1272.5 21.1669L1272.5 67.8332C1272.5 74.2766 1267.28 79.5001 1260.83 79.5001L305.167 79.5001C298.723 79.5001 293.5 74.2766 293.5 67.8332Z" stroke="#172C51" stroke-width="1.33333" stroke-miterlimit="8" fill="#262626" fill-rule="evenodd"/><path d="M641.5 106.667C641.5 97.7383 648.738 90.5001 657.667 90.5001L824.333 90.5001C833.262 90.5001 840.5 97.7383 840.5 106.667L840.5 171.333C840.5 180.262 833.262 187.5 824.333 187.5L657.667 187.5C648.738 187.5 641.5 180.262 641.5 171.333Z" stroke="#172C51" stroke-width="1.33333" stroke-miterlimit="8" fill="#262626" fill-rule="evenodd"/><path d="M11.5001 239.501C11.5001 216.305 30.3046 197.5 53.5012 197.5L753.499 197.5C776.696 197.5 795.5 216.305 795.5 239.501L795.5 407.499C795.5 430.695 776.696 449.5 753.499 449.5L53.5012 449.5C30.3046 449.5 11.5001 430.695 11.5001 407.499Z" stroke="#172C51" stroke-width="1.33333" stroke-miterlimit="8" fill="#262626" fill-rule="evenodd"/><path d="M808.5 239.501C808.5 216.304 827.304 197.5 850.501 197.5L1227.5 197.5C1250.7 197.5 1269.5 216.304 1269.5 239.501L1269.5 407.499C1269.5 430.696 1250.7 449.5 1227.5 449.5L850.501 449.5C827.304 449.5 808.5 430.696 808.5 407.499Z" stroke="#172C51" stroke-width="1.33333" stroke-miterlimit="8" fill="#262626" fill-rule="evenodd"/><path d="M11.5001 501.501C11.5001 478.304 30.3044 459.5 53.5008 459.5L372.499 459.5C395.696 459.5 414.5 478.304 414.5 501.501L414.5 669.499C414.5 692.696 395.696 711.5 372.499 711.5L53.5008 711.5C30.3044 711.5 11.5001 692.696 11.5001 669.499Z" stroke="#172C51" stroke-width="1.33333" stroke-miterlimit="8" fill="#262626" fill-rule="evenodd"/><path d="M425.5 501.501C425.5 478.305 444.305 459.5 467.501 459.5L811.499 459.5C834.696 459.5 853.5 478.305 853.5 501.501L853.5 669.499C853.5 692.696 834.696 711.5 811.499 711.5L467.501 711.5C444.305 711.5 425.5 692.696 425.5 669.499Z" stroke="#172C51" stroke-width="1.33333" stroke-miterlimit="8" fill="#262626" fill-rule="evenodd"/><path d="M866.5 501.501C866.5 478.304 885.304 459.5 908.501 459.5L1227.5 459.5C1250.7 459.5 1269.5 478.304 1269.5 501.501L1269.5 669.499C1269.5 692.696 1250.7 711.5 1227.5 711.5L908.501 711.5C885.304 711.5 866.5 692.696 866.5 669.499Z" stroke="#172C51" stroke-width="1.33333" stroke-miterlimit="8" fill="#262626" fill-rule="evenodd"/><path d="M856.5 107.5C856.5 98.6636 863.664 91.5001 872.5 91.5001L1039.5 91.5001C1048.34 91.5001 1055.5 98.6636 1055.5 107.5L1055.5 171.5C1055.5 180.336 1048.34 187.5 1039.5 187.5L872.5 187.5C863.664 187.5 856.5 180.336 856.5 171.5Z" stroke="#172C51" stroke-width="1.33333" stroke-miterlimit="8" fill="#262626" fill-rule="evenodd"/><path d="M1070.5 107.5C1070.5 98.6636 1077.66 91.5001 1086.5 91.5001L1253.5 91.5001C1262.34 91.5001 1269.5 98.6636 1269.5 107.5L1269.5 171.5C1269.5 180.336 1262.34 187.5 1253.5 187.5L1086.5 187.5C1077.66 187.5 1070.5 180.336 1070.5 171.5Z" stroke="#172C51" stroke-width="1.33333" stroke-miterlimit="8" fill="#262626" fill-rule="evenodd"/></g></svg>