<svg width="1280" height="720" xmlns="http://www.w3.org/2000/svg" xmlns:xlink="http://www.w3.org/1999/xlink" overflow="hidden"><g><rect x="0" y="0" width="1280" height="720" fill="#FFFFFF"/><path d="M290.5 23.4999C290.5 14.6634 297.663 7.50005 306.5 7.50005L1253.5 7.50005C1262.34 7.50005 1269.5 14.6634 1269.5 23.4999L1269.5 87.5002C1269.5 96.3367 1262.34 103.5 1253.5 103.5L306.5 103.5C297.663 103.5 290.5 96.3367 290.5 87.5002Z" stroke="#172C51" stroke-width="1.33333" stroke-miterlimit="8" fill="#336D9F" fill-rule="evenodd"/><path d="M9.50005 158.334C9.50005 131.916 30.9162 110.5 57.3343 110.5L1221.67 110.5C1248.08 110.5 1269.5 131.916 1269.5 158.334L1269.5 349.666C1269.5 376.084 1248.08 397.5 1221.67 397.5L57.3343 397.5C30.9162 397.5 9.50005 376.084 9.50005 349.666Z" stroke="#172C51" stroke-width="1.33333" stroke-miterlimit="8" fill="#336D9F" fill-rule="evenodd"/><path d="M495.5 456.001C495.5 427.558 518.558 404.5 547.001 404.5L1218 404.5C1246.44 404.5 1269.5 427.558 1269.5 456.001L1269.5 661.999C1269.5 690.442 1246.44 713.5 1218 713.5L547.001 713.5C518.558 713.5 495.5 690.442 495.5 661.999Z" stroke="#172C51" stroke-width="1.33333" stroke-miterlimit="8" fill="#336D9F" fill-rule="evenodd"/><path d="M9.50005 456.001C9.50005 427.558 32.5578 404.5 61.0009 404.5L436.999 404.5C465.442 404.5 488.5 427.558 488.5 456.001L488.5 661.999C488.5 690.442 465.442 713.5 436.999 713.5L61.0009 713.5C32.5578 713.5 9.50005 690.442 9.50005 661.999Z" stroke="#172C51" stroke-width="1.33333" stroke-miterlimit="8" fill="#336D9F" fill-rule="evenodd"/></g></svg>